<svg width="101" height="52" viewBox="0 0 101 52" fill="none" xmlns="http://www.w3.org/2000/svg">
<path d="M57.0771 12.8924V15.7169H48.1177V21.9429H55.103V24.7673H48.1177V34H44.6555V12.8924H57.0771ZM67.6354 34.2126C65.6714 34.2126 63.8593 33.757 62.199 32.8459C60.559 31.9146 59.2531 30.6289 58.2812 28.9888C57.3296 27.3286 56.8538 25.4659 56.8538 23.4007C56.8538 21.3354 57.3296 19.4828 58.2812 17.8428C59.2531 16.2028 60.559 14.9272 62.199 14.0161C63.8593 13.0848 65.6714 12.6191 67.6354 12.6191C69.6196 12.6191 71.4317 13.0848 73.0717 14.0161C74.732 14.9272 76.0379 16.2028 76.9895 17.8428C77.9411 19.4828 78.4169 21.3354 78.4169 23.4007C78.4169 25.4659 77.9411 27.3286 76.9895 28.9888C76.0379 30.6289 74.732 31.9146 73.0717 32.8459C71.4317 33.757 69.6196 34.2126 67.6354 34.2126ZM67.6354 31.2059C69.0324 31.2059 70.2776 30.8921 71.371 30.2644C72.4643 29.6165 73.3147 28.7054 73.9221 27.5311C74.5498 26.3365 74.8636 24.9597 74.8636 23.4007C74.8636 21.8416 74.5498 20.4749 73.9221 19.3006C73.3147 18.1263 72.4643 17.2253 71.371 16.5976C70.2776 15.97 69.0324 15.6561 67.6354 15.6561C66.2383 15.6561 64.9931 15.97 63.8998 16.5976C62.8064 17.2253 61.9459 18.1263 61.3183 19.3006C60.7109 20.4749 60.4072 21.8416 60.4072 23.4007C60.4072 24.9597 60.7109 26.3365 61.3183 27.5311C61.9459 28.7054 62.8064 29.6165 63.8998 30.2644C64.9931 30.8921 66.2383 31.2059 67.6354 31.2059ZM94.8225 18.9665C94.2759 17.9137 93.5166 17.1241 92.5447 16.5976C91.5729 16.051 90.4492 15.7776 89.1736 15.7776C87.7766 15.7776 86.5314 16.0915 85.438 16.7191C84.3447 17.3468 83.4842 18.2376 82.8565 19.3917C82.2491 20.5458 81.9454 21.8821 81.9454 23.4007C81.9454 24.9192 82.2491 26.2656 82.8565 27.4399C83.4842 28.594 84.3447 29.4849 85.438 30.1126C86.5314 30.7402 87.7766 31.054 89.1736 31.054C91.0566 31.054 92.5852 30.5276 93.7596 29.4748C94.9339 28.4219 95.6527 26.9945 95.9159 25.1925H87.9892V22.4288H99.6211V25.1318C99.3984 26.7718 98.8112 28.2802 97.8596 29.657C96.9282 31.0338 95.7033 32.1373 94.1848 32.9674C92.6865 33.7773 91.0161 34.1822 89.1736 34.1822C87.1894 34.1822 85.3773 33.7267 83.7373 32.8155C82.0972 31.8842 80.7913 30.5985 79.8195 28.9585C78.8678 27.3185 78.392 25.4659 78.392 23.4007C78.392 21.3354 78.8678 19.4828 79.8195 17.8428C80.7913 16.2028 82.0972 14.9272 83.7373 14.0161C85.3975 13.0848 87.2096 12.6191 89.1736 12.6191C91.421 12.6191 93.4154 13.1759 95.1566 14.2895C96.9181 15.3828 98.1937 16.9418 98.9833 18.9665H94.8225Z" fill="white"/>
<path d="M50.4181 39.0501V40.1011H48.3275V46.9041H47.0392V40.1011H44.9373V39.0501H50.4181ZM61.6675 43.6382C61.6675 43.8718 61.6524 44.0827 61.6223 44.2711H56.8647C56.9023 44.7683 57.0869 45.1676 57.4184 45.4689C57.7499 45.7703 58.1567 45.921 58.6389 45.921C59.332 45.921 59.8217 45.6309 60.108 45.0508H61.498C61.3096 45.6234 60.9668 46.0942 60.4696 46.4634C59.9799 46.825 59.3697 47.0058 58.6389 47.0058C58.0437 47.0058 57.5088 46.874 57.0342 46.6103C56.5671 46.3391 56.1979 45.9624 55.9267 45.4802C55.663 44.9905 55.5312 44.4255 55.5312 43.7851C55.5312 43.1447 55.6593 42.5835 55.9154 42.1013C56.1791 41.6116 56.5445 41.2349 57.0116 40.9712C57.4862 40.7076 58.0286 40.5757 58.6389 40.5757C59.2265 40.5757 59.7501 40.7038 60.2097 40.9599C60.6692 41.2161 61.0271 41.5777 61.2832 42.0448C61.5394 42.5044 61.6675 43.0355 61.6675 43.6382ZM60.3227 43.2314C60.3151 42.7568 60.1456 42.3763 59.8142 42.09C59.4827 41.8037 59.0721 41.6606 58.5824 41.6606C58.1379 41.6606 57.7574 41.8037 57.441 42.09C57.1246 42.3688 56.9362 42.7492 56.876 43.2314H60.3227ZM66.7436 43.7625C66.7436 43.1372 66.8717 42.5835 67.1278 42.1013C67.3915 41.6192 67.7456 41.2462 68.1901 40.9825C68.6421 40.7113 69.1393 40.5757 69.6818 40.5757C70.1715 40.5757 70.5971 40.6737 70.9588 40.8695C71.3279 41.0579 71.6217 41.2952 71.8402 41.5815V40.6774H73.1398V46.9041H71.8402V45.9775C71.6217 46.2713 71.3241 46.5161 70.9475 46.712C70.5708 46.9079 70.1413 47.0058 69.6592 47.0058C69.1243 47.0058 68.6346 46.8702 68.1901 46.599C67.7456 46.3202 67.3915 45.936 67.1278 45.4463C66.8717 44.9491 66.7436 44.3878 66.7436 43.7625ZM71.8402 43.7851C71.8402 43.3557 71.7498 42.9828 71.569 42.6664C71.3957 42.3499 71.1659 42.1089 70.8797 41.9431C70.5934 41.7774 70.2845 41.6945 69.953 41.6945C69.6215 41.6945 69.3126 41.7774 69.0263 41.9431C68.7401 42.1013 68.5065 42.3386 68.3257 42.6551C68.1524 42.9639 68.0658 43.3331 68.0658 43.7625C68.0658 44.1919 68.1524 44.5686 68.3257 44.8926C68.5065 45.2165 68.7401 45.4652 69.0263 45.6384C69.3202 45.8042 69.629 45.8871 69.953 45.8871C70.2845 45.8871 70.5934 45.8042 70.8797 45.6384C71.1659 45.4727 71.3957 45.2316 71.569 44.9152C71.7498 44.5912 71.8402 44.2145 71.8402 43.7851ZM86.6072 40.5757C87.0969 40.5757 87.5339 40.6774 87.9181 40.8808C88.3099 41.0843 88.615 41.3856 88.8335 41.7849C89.0595 42.1842 89.1725 42.6664 89.1725 43.2314V46.9041H87.8955V43.4235C87.8955 42.866 87.7561 42.4403 87.4774 42.1465C87.1986 41.8452 86.8182 41.6945 86.336 41.6945C85.8538 41.6945 85.4696 41.8452 85.1833 42.1465C84.9046 42.4403 84.7652 42.866 84.7652 43.4235V46.9041H83.4882V43.4235C83.4882 42.866 83.3489 42.4403 83.0701 42.1465C82.7914 41.8452 82.4109 41.6945 81.9287 41.6945C81.4466 41.6945 81.0623 41.8452 80.7761 42.1465C80.4973 42.4403 80.3579 42.866 80.3579 43.4235V46.9041H79.0697V40.6774H80.3579V41.3894C80.5689 41.1332 80.8363 40.9336 81.1603 40.7904C81.4842 40.6473 81.8308 40.5757 82.2 40.5757C82.6972 40.5757 83.1417 40.6812 83.5334 40.8921C83.9252 41.1031 84.2265 41.4082 84.4375 41.8075C84.6258 41.4308 84.9197 41.1332 85.3189 40.9147C85.7182 40.6887 86.1477 40.5757 86.6072 40.5757ZM97.3097 47.0058C96.82 47.0058 96.3793 46.9192 95.9875 46.7459C95.6033 46.5651 95.2982 46.324 95.0722 46.0227C94.8461 45.7138 94.7256 45.371 94.7105 44.9943H96.044C96.0666 45.258 96.1909 45.4802 96.4169 45.661C96.6505 45.8343 96.9405 45.921 97.2871 45.921C97.6487 45.921 97.9275 45.8531 98.1233 45.7175C98.3268 45.5744 98.4285 45.3936 98.4285 45.1751C98.4285 44.9416 98.3155 44.7683 98.0894 44.6553C97.871 44.5423 97.5206 44.418 97.0385 44.2824C96.5714 44.1543 96.1909 44.03 95.8971 43.9094C95.6033 43.7889 95.3471 43.6043 95.1287 43.3557C94.9177 43.1071 94.8122 42.7794 94.8122 42.3725C94.8122 42.041 94.9102 41.7397 95.1061 41.4685C95.3019 41.1897 95.5807 40.9712 95.9423 40.813C96.3115 40.6548 96.7334 40.5757 97.208 40.5757C97.9162 40.5757 98.485 40.7565 98.9144 41.1182C99.3514 41.4722 99.5849 41.9582 99.615 42.5759H98.3268C98.3042 42.2972 98.1912 42.0749 97.9877 41.9092C97.7843 41.7435 97.5093 41.6606 97.1628 41.6606C96.8238 41.6606 96.5638 41.7246 96.383 41.8527C96.2022 41.9808 96.1118 42.1503 96.1118 42.3612C96.1118 42.527 96.1721 42.6664 96.2926 42.7794C96.4132 42.8924 96.5601 42.9828 96.7334 43.0506C96.9066 43.1108 97.1628 43.19 97.5018 43.2879C97.9538 43.4084 98.323 43.5327 98.6093 43.6608C98.9031 43.7814 99.1555 43.9622 99.3664 44.2032C99.5774 44.4443 99.6866 44.7645 99.6941 45.1638C99.6941 45.5179 99.5962 45.8343 99.4003 46.1131C99.2044 46.3918 98.9257 46.6103 98.5641 46.7685C98.21 46.9267 97.7919 47.0058 97.3097 47.0058Z" fill="white"/>
<ellipse cx="18.3636" cy="29.2055" rx="18.3636" ry="18.5205" fill="white"/>
<path d="M13.3223 21.1172L18.3633 26.2013L23.4043 21.1172" stroke="#5322FF" stroke-width="1.83309" stroke-linecap="round"/>
<ellipse cx="18.3634" cy="19.2684" rx="1.83309" ry="1.84875" fill="#5322FF"/>
<path d="M13.3223 37.2937L18.3633 32.2096L23.4043 37.2937" stroke="#5322FF" stroke-width="1.83309" stroke-linecap="round"/>
<ellipse rx="1.83309" ry="1.84875" transform="matrix(1 0 0 -1 18.3634 39.1425)" fill="#5322FF"/>
<path d="M26.3835 24.1214L21.3425 29.2055L26.3835 34.2896" stroke="#5322FF" stroke-width="1.83309" stroke-linecap="round"/>
<ellipse cx="28.2165" cy="29.2055" rx="1.84875" ry="1.83309" transform="rotate(90 28.2165 29.2055)" fill="#5322FF"/>
<path d="M10.3438 24.1214L15.3847 29.2055L10.3437 34.2896" stroke="#5322FF" stroke-width="1.83309" stroke-linecap="round"/>
<ellipse rx="1.84875" ry="1.83309" transform="matrix(-4.33411e-08 1 1 4.40849e-08 8.51082 29.2055)" fill="#5322FF"/>
</svg>
