<svg width="131" height="116" viewBox="0 0 131 116" fill="none" xmlns="http://www.w3.org/2000/svg">
<path d="M32.7909 27.9138V34.2146H12.8047V48.1033H28.3872V54.404H12.8047V75H5.08124V27.9138H32.7909ZM56.3441 75.4742C51.9629 75.4742 47.9205 74.458 44.2168 72.4255C40.5583 70.3478 37.6451 67.4798 35.4771 63.8213C33.3543 60.1176 32.2929 55.9623 32.2929 51.3553C32.2929 46.7483 33.3543 42.6156 35.4771 38.9571C37.6451 35.2986 40.5583 32.4531 44.2168 30.4206C47.9205 28.3429 51.9629 27.3041 56.3441 27.3041C60.7704 27.3041 64.8128 28.3429 68.4713 30.4206C72.175 32.4531 75.0882 35.2986 77.211 38.9571C79.3339 42.6156 80.3953 46.7483 80.3953 51.3553C80.3953 55.9623 79.3339 60.1176 77.211 63.8213C75.0882 67.4798 72.175 70.3478 68.4713 72.4255C64.8128 74.458 60.7704 75.4742 56.3441 75.4742ZM56.3441 68.767C59.4606 68.767 62.2383 68.0669 64.6773 66.6668C67.1163 65.2214 69.0133 63.1889 70.3683 60.5693C71.7685 57.9045 72.4685 54.8331 72.4685 51.3553C72.4685 47.8775 71.7685 44.8287 70.3683 42.2091C69.0133 39.5894 67.1163 37.5795 64.6773 36.1793C62.2383 34.7792 59.4606 34.0791 56.3441 34.0791C53.2276 34.0791 50.4498 34.7792 48.0108 36.1793C45.5718 37.5795 43.6523 39.5894 42.2521 42.2091C40.8971 44.8287 40.2196 47.8775 40.2196 51.3553C40.2196 54.8331 40.8971 57.9045 42.2521 60.5693C43.6523 63.1889 45.5718 65.2214 48.0108 66.6668C50.4498 68.0669 53.2276 68.767 56.3441 68.767ZM116.992 41.4638C115.773 39.1152 114.079 37.3537 111.911 36.1793C109.743 34.9598 107.236 34.3501 104.391 34.3501C101.274 34.3501 98.4967 35.0502 96.0577 36.4503C93.6187 37.8505 91.6991 39.8378 90.2989 42.4123C88.9439 44.9868 88.2664 47.9678 88.2664 51.3553C88.2664 54.7428 88.9439 57.7464 90.2989 60.366C91.6991 62.9405 93.6187 64.9279 96.0577 66.328C98.4967 67.7282 101.274 68.4283 104.391 68.4283C108.591 68.4283 112.001 67.2539 114.621 64.9053C117.241 62.5566 118.844 59.3724 119.431 55.3525H101.749V49.1873H127.697V55.217C127.2 58.8755 125.89 62.2404 123.767 65.3118C121.69 68.3831 118.957 70.8447 115.57 72.6965C112.227 74.5032 108.501 75.4065 104.391 75.4065C99.9646 75.4065 95.9222 74.3903 92.2637 72.3578C88.6052 70.2801 85.6919 67.412 83.5239 63.7535C81.4011 60.095 80.3397 55.9623 80.3397 51.3553C80.3397 46.7483 81.4011 42.6156 83.5239 38.9571C85.6919 35.2986 88.6052 32.4531 92.2637 30.4206C95.9673 28.3429 100.01 27.3041 104.391 27.3041C109.404 27.3041 113.853 28.5462 117.738 31.0303C121.667 33.4693 124.513 36.9472 126.274 41.4638H116.992Z" fill="black"/>
<path d="M17.9372 88.3429V90.6873H13.2735V105.863H10.3996V90.6873H5.7107V88.3429H17.9372ZM43.0318 98.5778C43.0318 99.0988 42.9982 99.5694 42.931 99.9895H32.3179C32.4019 101.099 32.8137 101.989 33.5531 102.662C34.2926 103.334 35.2001 103.67 36.2757 103.67C37.8219 103.67 38.9143 103.023 39.5529 101.729H42.6537C42.2335 103.006 41.4688 104.057 40.3596 104.88C39.2672 105.687 37.9059 106.09 36.2757 106.09C34.948 106.09 33.7548 105.796 32.696 105.208C31.654 104.603 30.8305 103.763 30.2255 102.687C29.6373 101.595 29.3432 100.334 29.3432 98.9055C29.3432 97.477 29.6289 96.2249 30.2003 95.1493C30.7885 94.0569 31.6036 93.2166 32.6456 92.6284C33.7044 92.0402 34.9144 91.7461 36.2757 91.7461C37.5866 91.7461 38.7546 92.0318 39.7798 92.6032C40.805 93.1746 41.6033 93.9813 42.1747 95.0233C42.7461 96.0485 43.0318 97.2333 43.0318 98.5778ZM40.0319 97.6703C40.0151 96.6115 39.637 95.7628 38.8975 95.1241C38.158 94.4855 37.2421 94.1662 36.1497 94.1662C35.1581 94.1662 34.3094 94.4855 33.6036 95.1241C32.8977 95.746 32.4775 96.5947 32.3431 97.6703H40.0319ZM54.3555 98.8551C54.3555 97.4602 54.6412 96.2249 55.2126 95.1493C55.8008 94.0738 56.5907 93.2418 57.5823 92.6536C58.5906 92.0486 59.6999 91.7461 60.9099 91.7461C62.0023 91.7461 62.9518 91.9646 63.7585 92.4015C64.582 92.8217 65.2375 93.3511 65.7249 93.9897V91.973H68.6239V105.863H65.7249V103.796C65.2375 104.452 64.5736 104.998 63.7333 105.435C62.893 105.872 61.9351 106.09 60.8595 106.09C59.6662 106.09 58.5738 105.788 57.5823 105.183C56.5907 104.561 55.8008 103.704 55.2126 102.611C54.6412 101.502 54.3555 100.25 54.3555 98.8551ZM65.7249 98.9055C65.7249 97.9476 65.5232 97.1157 65.1198 96.4098C64.7333 95.704 64.2207 95.1662 63.5821 94.7964C62.9434 94.4267 62.2544 94.2418 61.5149 94.2418C60.7755 94.2418 60.0864 94.4267 59.4478 94.7964C58.8091 95.1493 58.2881 95.6787 57.8848 96.3846C57.4982 97.0737 57.305 97.8972 57.305 98.8551C57.305 99.8131 57.4982 100.653 57.8848 101.376C58.2881 102.099 58.8091 102.653 59.4478 103.04C60.1032 103.41 60.7923 103.594 61.5149 103.594C62.2544 103.594 62.9434 103.41 63.5821 103.04C64.2207 102.67 64.7333 102.132 65.1198 101.426C65.5232 100.704 65.7249 99.8635 65.7249 98.9055ZM98.6667 91.7461C99.7591 91.7461 100.734 91.973 101.591 92.4267C102.465 92.8805 103.146 93.5528 103.633 94.4435C104.137 95.3342 104.389 96.4098 104.389 97.6703V105.863H101.541V98.0988C101.541 96.8552 101.23 95.9056 100.608 95.2502C99.9859 94.5779 99.1372 94.2418 98.0616 94.2418C96.986 94.2418 96.1289 94.5779 95.4903 95.2502C94.8685 95.9056 94.5576 96.8552 94.5576 98.0988V105.863H91.7089V98.0988C91.7089 96.8552 91.398 95.9056 90.7762 95.2502C90.1543 94.5779 89.3056 94.2418 88.23 94.2418C87.1544 94.2418 86.2973 94.5779 85.6587 95.2502C85.0369 95.9056 84.7259 96.8552 84.7259 98.0988V105.863H81.8521V91.973H84.7259V93.5612C85.1965 92.9898 85.7931 92.5444 86.5158 92.2251C87.2385 91.9058 88.0115 91.7461 88.8351 91.7461C89.9443 91.7461 90.9358 91.9814 91.8097 92.452C92.6837 92.9225 93.3559 93.6032 93.8265 94.4939C94.2466 93.6536 94.9021 92.9898 95.7928 92.5024C96.6835 91.9982 97.6415 91.7461 98.6667 91.7461ZM122.541 106.09C121.449 106.09 120.466 105.897 119.592 105.51C118.735 105.107 118.054 104.569 117.55 103.897C117.046 103.208 116.777 102.443 116.743 101.603H119.718C119.768 102.191 120.046 102.687 120.55 103.09C121.071 103.477 121.718 103.67 122.491 103.67C123.298 103.67 123.92 103.519 124.356 103.216C124.81 102.897 125.037 102.494 125.037 102.006C125.037 101.485 124.785 101.099 124.281 100.847C123.793 100.595 123.012 100.317 121.936 100.015C120.894 99.729 120.046 99.4517 119.39 99.1828C118.735 98.9139 118.163 98.5022 117.676 97.9476C117.205 97.393 116.97 96.6619 116.97 95.7544C116.97 95.0149 117.189 94.3427 117.626 93.7376C118.063 93.1158 118.684 92.6284 119.491 92.2755C120.315 91.9226 121.256 91.7461 122.315 91.7461C123.894 91.7461 125.163 92.1494 126.121 92.9561C127.096 93.746 127.617 94.83 127.684 96.2081H124.81C124.76 95.5863 124.508 95.0905 124.054 94.7208C123.6 94.3511 122.987 94.1662 122.214 94.1662C121.457 94.1662 120.878 94.309 120.474 94.5947C120.071 94.8805 119.869 95.2586 119.869 95.7292C119.869 96.0989 120.004 96.4098 120.273 96.6619C120.541 96.914 120.869 97.1157 121.256 97.2669C121.642 97.4014 122.214 97.5778 122.97 97.7963C123.978 98.0652 124.802 98.3425 125.44 98.6282C126.096 98.8971 126.659 99.3005 127.129 99.8383C127.6 100.376 127.844 101.09 127.861 101.981C127.861 102.771 127.642 103.477 127.205 104.099C126.768 104.72 126.146 105.208 125.34 105.561C124.55 105.914 123.617 106.09 122.541 106.09Z" fill="black"/>
</svg>
