<svg width="24" height="24" viewBox="0 0 24 24" fill="none" xmlns="http://www.w3.org/2000/svg">
<path fill-rule="evenodd" clip-rule="evenodd" d="M4 23.8042L10.0868 20H18C19.1046 20 20 19.1046 20 18V6C20 4.89543 19.1046 4 18 4H2C0.89543 4 0 4.89543 0 6V18C0 19.1046 0.89543 20 2 20H4V23.8042ZM9.5132 18L6 20.1958V18H2V6H18V18H9.5132Z" fill="#697196"/>
<path d="M6 4V2C6 1.44772 6.44772 1 7 1H22C22.5523 1 23 1.44772 23 2V15C23 15.5523 22.5523 16 22 16H19.4355H19" stroke="#697196" stroke-width="2"/>
</svg>
